<?xml version="1.0" standalone="no"?>
<!DOCTYPE svg PUBLIC "-//W3C//DTD SVG 20010904//EN"
 "http://www.w3.org/TR/2001/REC-SVG-20010904/DTD/svg10.dtd">
<svg version="1.0" xmlns="http://www.w3.org/2000/svg"
 width="810.000000pt" height="810.000000pt" viewBox="0 0 810.000000 810.000000"
 preserveAspectRatio="xMidYMid meet">
<metadata>
Created by potrace 1.14, written by Peter Selinger 2001-2017
</metadata>
<g transform="translate(0.000000,810.000000) scale(0.100000,-0.100000)"
fill="#000000" stroke="none">
<path d="M1299 8096 c-2 -2 -38 -7 -79 -11 -109 -10 -326 -58 -385 -84 -11 -5
-47 -19 -80 -31 -271 -97 -520 -348 -630 -635 -55 -144 -79 -237 -101 -385 -2
-14 -7 -45 -11 -70 -10 -65 -13 -5531 -3 -5615 5 -38 11 -88 14 -110 3 -22 8
-51 11 -65 3 -14 8 -41 11 -60 12 -67 47 -185 76 -259 156 -395 480 -647 938
-731 30 -6 66 -12 80 -15 13 -3 56 -8 95 -12 89 -10 5524 -11 5625 -1 384 37
701 181 911 414 115 128 219 336 267 534 28 115 27 109 52 315 10 86 7 5542
-3 5605 -5 25 -15 86 -23 135 -61 361 -228 649 -477 823 -157 110 -302 168
-562 226 -5 2 -30 6 -55 10 -25 4 -61 10 -80 13 -37 7 -5584 16 -5591 9z"/>
</g>
</svg>
